<svg width="197" height="194" viewBox="0 0 197 194" fill="none" xmlns="http://www.w3.org/2000/svg">
<path d="M169.357 17.3448C127.508 46.9221 84.3374 74.6857 40.0263 100.448C33.7408 104.139 27.4399 107.76 21.096 111.354C17.2443 113.505 13.3496 115.629 9.5718 117.949C10.2761 119.308 10.91 120.683 11.5869 122.086C15.0003 119.958 18.5581 117.983 22.1159 116.008C27.6761 112.884 33.1932 109.734 38.7379 106.54C49.9252 100.093 61.0112 93.5216 71.9958 86.8246C94.1609 73.3129 116.006 59.3546 137.56 44.9067C148.993 37.2223 160.325 29.4126 171.583 21.4344C170.836 20.0477 170.061 18.7041 169.357 17.3448Z" fill="#FA6E00"/>
<path d="M174.578 26.4992C154.047 40.3867 133.559 54.3016 113.001 68.2322C91.1567 83.0406 69.5154 98.0997 45.8761 109.943C35.0241 115.39 24.1291 120.81 14.5467 128.341C14.7958 128.803 14.9744 129.281 15.2235 129.744C15.8042 130.539 16.3849 131.334 16.9382 132.172C25.8073 125.096 36.099 119.958 46.2223 114.895C57.6776 109.165 68.7858 103.032 79.5831 96.1548C101.793 82.0046 123.36 66.777 145.177 52.0118C155.826 44.7976 166.406 37.5992 177.055 30.385C176.182 29.1002 175.38 27.7997 174.578 26.4992Z" fill="#FA6E00"/>
<path d="M180.749 35.775L118.85 77.7276C107.558 85.3806 96.2381 93.0767 84.9457 100.73C74.1707 108.046 63.3252 115.377 51.923 121.687C41.81 127.302 30.8859 131.915 21.9068 139.164C22.8071 140.406 23.6369 141.664 24.4667 142.921C32.4816 136.33 42.2937 132.039 51.415 127.124C62.934 121.011 73.7949 113.75 84.6129 106.461C106.974 91.3159 129.265 76.1862 151.627 61.0408L183.575 39.3984C182.577 38.2154 181.677 36.9737 180.749 35.775Z" fill="#FA6E00"/>
<path d="M189.299 46.6293C188.874 45.8733 188.407 45.0898 187.955 44.3769C187.522 43.9186 187.046 43.4329 186.613 42.9746C146.491 74.8669 104.267 104.084 60.2758 130.292C49.6796 136.57 39.0097 142.679 28.2658 148.62C29.0681 149.921 29.898 151.178 30.6298 152.495C74.6278 128.17 117.045 101.018 157.444 71.061C168.193 63.1221 178.826 54.9873 189.299 46.6293Z" fill="#FA6E00"/>
</svg>
