<svg width="112" height="81" viewBox="0 0 112 81" fill="none" xmlns="http://www.w3.org/2000/svg">
<g clip-path="url(#clip0)">
<path d="M96.9945 79.4852C95.6139 75.2966 94.671 71.0163 93.0462 66.9704C91.182 62.6547 88.3916 58.716 85.5504 54.9707C79.7253 47.2358 72.8215 40.4581 65.302 34.4492C52.0398 23.9323 35.1174 11.2126 17.171 13.0095C15.1301 13.3002 15.1411 16.405 17.1567 16.211C26.2163 15.1802 34.8394 18.1705 42.669 22.6066C50.3305 26.8951 57.7886 31.9573 64.7328 37.4015C71.3155 42.6472 77.5523 48.4224 83.0054 54.8187C86.0196 58.2993 89.0543 62.0955 91.1881 66.1718C93.49 70.3957 94.4992 75.2104 96.2158 79.6941C96.3789 80.254 97.1575 80.045 96.9945 79.4852Z" fill="#413E6F"/>
<path d="M51.7611 10.8313C46.1368 10.5938 40.3041 11.5422 34.6493 11.8136C31.8601 11.8043 28.9945 12.085 26.0832 12.147C22.9783 12.1581 19.9597 11.0544 16.9616 10.2664C15.5108 9.88507 14.5188 11.6923 15.5728 12.7965C23.4034 21.1619 34.7451 26.0041 41.1051 35.6374C41.9148 36.8842 43.6706 36.1049 43.4208 34.6951C42.768 30.491 37.9063 27.352 34.8313 24.8894C29.114 20.2848 22.6639 16.1079 17.659 10.7599C17.2368 11.5795 16.7179 12.3737 16.2702 13.29C18.6881 13.9255 21.3199 14.9274 23.7427 15.1507C26.6745 15.4043 30.1049 14.5482 33.0925 14.1961C39.1645 13.5174 45.5875 11.8969 51.7971 11.8748C52.5249 11.8593 52.489 10.8159 51.7611 10.8313Z" fill="#413E6F"/>
</g>
<defs>
<clipPath id="clip0">
<rect width="100.8" height="57" fill="white" transform="translate(14.49) rotate(14.7268)"/>
</clipPath>
</defs>
</svg>
