<svg width="413" height="170" viewBox="0 0 413 170" fill="none" xmlns="http://www.w3.org/2000/svg">
<path d="M189.481 5.06291C152.651 10.8847 116.123 20.6318 81.6507 38.1974C55.869 51.2806 21.6896 69.5546 6.70017 100.271C-28.7591 171.835 122.978 167.753 146.766 166.152C220.739 161.294 295.851 149.618 364.5 113.063C380.721 104.482 403.602 91.463 409.915 69.5179C416.803 46.1302 398.184 30.8152 382.786 24.3653C354.604 12.8371 322.112 14.6305 292.812 16.3532C243.494 18.8775 195.071 28.8886 146.646 38.5423C143.746 38.9641 145.214 44.2934 147.823 43.5206C210.167 31.4132 273.379 18.5717 336.642 21.4573C356.956 22.4363 389.746 23.4959 402.877 46.4393C418.341 73.2629 384.175 95.8261 367.957 105.123C314.958 135.968 254.361 150.181 196.642 156.824C163.867 160.768 130.799 163.647 98.0072 162.23C81.7563 161.518 65.4997 159.019 49.8187 155.078C35.5908 151.819 9.74258 144.171 5.61534 123.888C0.899808 101.115 25.2079 80.9152 37.9416 70.6238C53.2796 58.1298 69.7862 48.1121 86.8777 39.5112C119.903 23.4076 154.692 14.0565 189.493 8.63724C191.523 8.23473 191.511 4.6604 189.481 5.06291Z" fill="#413E6F"/>
</svg>
