<svg width="35" height="36" viewBox="0 0 35 36" fill="none" xmlns="http://www.w3.org/2000/svg">
<g clip-path="url(#clip0)">
<path d="M23.9833 8.46268C21.9179 8.835 20.1902 10.3323 18.5654 11.5614C18.3538 11.7118 18.1888 11.8415 17.9773 11.9919C16.2958 10.3603 14.5472 8.7033 12.6957 7.31451C11.9707 6.19698 10.7198 5.64857 9.33631 6.04777C7.76698 6.5304 6.93844 8.28998 7.7622 9.7517C9.11438 12.1417 11.019 14.3947 12.975 16.5136C10.5365 19.1625 7.57802 22.7665 7.42395 26.2768C7.35934 27.7489 8.98764 28.5164 10.221 27.9071C11.8053 27.0847 13.0369 25.4772 14.2537 24.2093C15.254 23.2052 16.2335 22.1548 17.301 21.176C18.1496 22.0715 18.9725 23.0341 19.8211 23.9296C21.2753 25.5523 22.7452 27.3344 24.6323 28.4297C27.5173 30.1315 30.626 26.7376 29.1543 23.9572C28.2111 22.1051 26.5662 20.6791 25.1278 19.2158C24.2999 18.3665 23.4256 17.538 22.5977 16.6886C24.0526 15.7024 25.7969 14.8637 26.905 13.4781C28.6932 11.1211 27.0349 7.92504 23.9833 8.46268Z" fill="#413E6F"/>
</g>
<defs>
<clipPath id="clip0">
<rect width="25" height="28" fill="white" transform="translate(0 10.2402) rotate(-24.1802)"/>
</clipPath>
</defs>
</svg>
