<svg width="35" height="36" viewBox="0 0 35 36" fill="none" xmlns="http://www.w3.org/2000/svg">
<g clip-path="url(#clip0)">
<path d="M23.9832 8.46268C21.9178 8.835 20.1901 10.3323 18.5652 11.5614C18.3537 11.7118 18.1887 11.8415 17.9772 11.9919C16.2957 10.3603 14.5471 8.7033 12.6956 7.31451C11.9706 6.19698 10.7197 5.64857 9.33619 6.04777C7.76686 6.5304 6.93832 8.28998 7.76208 9.7517C9.11426 12.1417 11.0189 14.3947 12.9749 16.5136C10.5364 19.1625 7.5779 22.7665 7.42383 26.2768C7.35922 27.7489 8.98752 28.5164 10.2209 27.9071C11.8051 27.0847 13.0368 25.4772 14.2536 24.2093C15.2539 23.2052 16.2334 22.1548 17.3009 21.176C18.1495 22.0715 18.9724 23.0341 19.821 23.9296C21.2751 25.5523 22.7451 27.3344 24.6322 28.4297C27.5172 30.1315 30.6259 26.7376 29.1542 23.9572C28.211 22.1051 26.566 20.6791 25.1277 19.2158C24.2998 18.3665 23.4255 17.538 22.5976 16.6886C24.0524 15.7024 25.7968 14.8637 26.9049 13.4781C28.6931 11.1211 27.0348 7.92504 23.9832 8.46268Z" fill="#FA6E00"/>
</g>
<defs>
<clipPath id="clip0">
<rect width="25" height="28" fill="white" transform="translate(0 10.2402) rotate(-24.1802)"/>
</clipPath>
</defs>
</svg>
