<svg width="482" height="157" viewBox="0 0 482 157" fill="none" xmlns="http://www.w3.org/2000/svg">
<path fill-rule="evenodd" clip-rule="evenodd" d="M2.88763 129.2C4.88763 136 13.0876 142.3 20.0876 142.8C34.1876 143.9 47.9876 138.8 61.0876 131.7C64.4876 137.8 70.0876 142.3 76.9876 145.3C62.4876 168.6 51.9876 200 82.0876 211.2C106.588 220.3 160.588 197.9 160.588 197.9C162.988 213.7 202.488 222.3 216.388 207.3C216.388 207.3 214.388 225.8 221.988 232.3C231.688 240.6 244.888 240.5 258.888 236.4C257.288 243.4 255.988 250.5 255.188 257.9C253.388 275.3 247.588 309.1 262.288 325.1C277.288 329.4 293.288 332.6 309.688 334.6C309.788 334 309.888 333.5 310.088 332.9C317.788 330.5 325.288 326.7 332.388 321.9C331.088 326.6 330.188 331.5 329.288 336.3C362.388 338.3 396.388 335.4 427.188 326.8C433.488 311.2 439.088 295.4 443.488 279C446.488 267.5 449.388 252.2 450.788 236.2C451.388 236.1 452.088 236.1 452.788 236C465.288 234.8 477.188 232 488.788 228C490.888 256.1 474.988 289.1 460.588 314.5C488.088 301.5 510.788 282.7 524.688 257.1C526.388 254 528.288 251.2 530.288 248.7C532.088 235.2 532.088 221.2 529.488 208.2C533.288 205.8 536.988 203.2 540.688 200.5C584.588 194 629.488 158.9 661.388 134.3C678.988 120.7 715.488 89.1001 704.588 62.5001C693.388 35.3001 668.688 34.8001 644.088 39.4001C643.288 39.0001 642.488 38.5001 641.588 38.1001C636.088 35.4001 630.288 33.6001 624.388 32.4001C614.288 21.1001 597.988 13.8001 576.088 13.0001C545.988 12.0001 514.888 21.3001 486.588 34.9001C475.088 37.1001 465.188 41.6001 456.388 48.0001C455.988 47.8001 455.688 47.6001 455.388 47.4001C455.388 36.0001 446.988 25.0001 432.588 26.1001C413.088 27.7001 394.088 34.4001 375.588 43.1001C377.788 38.8001 379.788 34.5001 381.088 30.2001C386.888 10.9001 372.488 -3.99989 352.988 1.00011C333.288 6.00011 314.588 13.3001 296.488 21.9001C274.688 18.6001 208.488 32.6001 192.288 42.1001C192.988 38.4001 192.688 34.5001 191.188 30.3001C175.888 -12.4999 69.4876 28.7001 49.2876 50.9001C45.6876 54.9001 44.2876 60.1001 44.5876 65.3001C15.5876 74.7001 -8.51237 90.3001 2.88763 129.2ZM621.488 111.7C627.988 101.6 632.288 91.6001 634.588 82.0001C637.988 80.7001 641.788 79.2001 645.588 77.8001C648.588 84.9001 646.888 93.7001 642.788 102.9C636.988 107.9 630.888 112.5 624.888 117C620.188 120.5 615.488 123.9 610.788 127.3C614.388 122.2 618.088 117 621.488 111.7ZM542.588 144.8C550.588 135.6 561.688 121.7 570.188 106.5C573.088 105.3 575.988 104 578.988 102.8C577.888 104.4 576.988 105.7 576.488 106.4C563.488 125 547.788 143.5 529.888 159.1C534.588 154 538.888 149.1 542.588 144.8ZM364.388 219.4C368.288 215.4 372.188 211.5 376.188 208C376.788 207.4 377.688 206.7 378.688 205.9C373.388 213.6 368.188 221.3 363.088 229C354.188 242.5 344.488 256.1 333.488 268.1C342.088 250.9 352.588 234.6 364.388 219.4ZM308.788 210.9C310.488 209.8 312.088 208.8 313.688 207.7C310.388 212.3 307.288 217.1 304.388 222C305.688 218.4 307.188 214.7 308.788 210.9ZM122.488 151.8C135.188 151.4 128.388 153.3 138.288 152C126.688 157.7 107.088 167.9 105.488 179.4C106.788 170 113.688 160.5 122.488 151.8Z" fill="#FAF5F4"/>
<path d="M35.9877 122.1H8.3877V123.8L35.9877 123.7H36.7877V122.1H35.9877Z" fill="#4E4E4E"/>
<path d="M6.78765 122.1H1.08765C1.18765 122.6 1.38765 123.2 1.48765 123.7H6.88765V122.1H6.78765Z" fill="#4E4E4E"/>
<path d="M8.3876 122.1V86.7C7.7876 87.4 7.2876 88.2 6.7876 88.9V122V123.6V135.9C7.2876 136.5 7.7876 137 8.3876 137.5V123.6V122.1Z" fill="#4E4E4E"/>
<path d="M474.288 121.6L417.488 121.7V123.3L474.288 123.2V121.6Z" fill="#4E4E4E"/>
<path d="M271.388 121.8H270.588V123.5H271.388L283.488 123.4H298.888V121.8H283.488H271.388Z" fill="#4E4E4E"/>
<path d="M357.388 121.7L300.588 121.8V123.4H357.388V121.7Z" fill="#4E4E4E"/>
<path d="M358.988 121.7V123.4L374.488 123.3H415.788V121.7H374.488H358.988Z" fill="#4E4E4E"/>
<path d="M504.288 123.2V121.6H503.488H475.888V123.2H503.488H504.288Z" fill="#4E4E4E"/>
<path d="M358.888 6.4999H376.388C375.788 5.8999 375.288 5.3999 374.588 4.8999H358.788V6.4999H358.888Z" fill="#4E4E4E"/>
<path d="M357.288 4.8999H339.088C337.488 5.3999 335.888 5.9999 334.288 6.4999H357.388V4.8999H357.288Z" fill="#4E4E4E"/>
<path d="M271.288 64.9999H283.488H298.888V63.3999H283.488H271.288H270.488V64.9999H271.288Z" fill="#4E4E4E"/>
<path d="M504.188 64.8001V63.1001H503.388L475.788 63.2001V64.8001H503.388H504.188Z" fill="#4E4E4E"/>
<path d="M474.188 63.2H417.388V64.9L474.188 64.8V63.2Z" fill="#4E4E4E"/>
<path d="M374.388 64.9H415.788V63.2L374.388 63.2999H358.988V64.9H374.388Z" fill="#4E4E4E"/>
<path d="M357.288 63.3L300.488 63.4001V65L357.288 64.9001V63.3Z" fill="#4E4E4E"/>
<path d="M357.288 6.5V47.9V63.3V64.9L357.388 121.7V123.3V138.5V150.9V151.7H358.988V151V138.6V123.4V121.8V64.9V63.3V47.9L358.888 6.5V4.9V0C358.388 0 357.788 0.1 357.288 0.1V4.8V6.5Z" fill="#4E4E4E"/>
<path d="M474.188 64.8001L474.288 121.6V123.2V150.8V151.6H475.888V150.8V123.2V121.6L475.788 64.8001V63.2001V37.6001C475.188 37.8001 474.688 38.0001 474.088 38.2001V63.1001V64.8001H474.188Z" fill="#4E4E4E"/>
<path d="M298.888 63.4001V65.0001L298.988 121.8V123.4V138.6V151V151.8H300.588V151V138.6V123.4V121.8L300.488 65.0001V63.4001V48.0001V20.1001C299.988 20.3001 299.388 20.6001 298.888 20.8001V48.0001V63.4001Z" fill="#4E4E4E"/>
<path d="M415.788 64.9001L415.888 121.7V123.3V150.9V151.7H417.488V150.9V123.3V121.7L417.388 64.9001V63.3L417.288 28.3C416.788 28.4 416.188 28.6001 415.688 28.7001L415.788 63.3V64.9001Z" fill="#4E4E4E"/>
<path d="M242.188 181.9V180.3V152.7V151.9H240.588V152.7V180.3V181.9L240.688 238.7V239C241.288 239 241.788 239 242.288 239V238.6L242.188 181.9Z" fill="#4E4E4E"/>
<path d="M183.788 180.4V152.8V152H182.188V152.8V180.4V182V185.5C182.788 185.2 183.288 184.9 183.788 184.6V182V180.4Z" fill="#4E4E4E"/>
<path d="M183.688 121.9V123.6L240.488 123.5V121.9H183.688Z" fill="#4E4E4E"/>
<path d="M270.588 123.5V121.8H269.788L242.088 121.9V123.5H269.788H270.588Z" fill="#4E4E4E"/>
<path d="M182.088 123.6V121.9L140.688 122H125.288V123.6H140.688H182.088Z" fill="#4E4E4E"/>
<path d="M37.5876 122.1H36.7876V123.7H37.5876H49.7876H65.1876V122.1H49.7876H37.5876Z" fill="#4E4E4E"/>
<path d="M66.7876 122.1V123.7L123.588 123.6V122L66.7876 122.1Z" fill="#4E4E4E"/>
<path d="M270.488 64.9999V63.3999H269.688H242.088V64.9999H269.688H270.488Z" fill="#4E4E4E"/>
<path d="M240.488 63.3999L183.588 63.4999V65.0999H240.488V63.3999Z" fill="#4E4E4E"/>
<path d="M181.988 65.1V63.5H140.588L125.188 63.6V65.2H140.588L181.988 65.1Z" fill="#4E4E4E"/>
<path d="M65.0877 65.2001V63.6001H49.6877H44.5877C44.5877 64.1001 44.4877 64.7001 44.5877 65.2001H49.6877H65.0877Z" fill="#4E4E4E"/>
<path d="M123.588 63.6001H66.7876V65.2001H123.588V63.6001Z" fill="#4E4E4E"/>
<path d="M123.588 63.5999V65.1999V122V123.6V138.8V151.2V151.9C124.088 151.9 124.688 151.8 125.188 151.8V151.2V138.8V123.6V122L125.088 65.1999V63.5999V48.2V15.7C124.488 15.8 123.988 16 123.488 16.1V48.2L123.588 63.5999Z" fill="#4E4E4E"/>
<path d="M240.488 65.1L240.588 121.9V123.5V151.1V151.9H242.188V151.1V123.5V121.9L242.088 65V63.4V32.5C241.488 32.7 240.988 32.9 240.488 33.1V63.3V65.1Z" fill="#4E4E4E"/>
<path d="M66.7877 123.7V122.1L66.6876 65.2999V63.6999V48.2999V38.3999C66.1876 38.6999 65.5876 38.9999 65.0876 39.2999V48.1999V63.5999V65.1999L65.1876 122V123.6V137.4C65.6876 138 66.2877 138.5 66.7877 139V138.8V123.7Z" fill="#4E4E4E"/>
<path d="M181.988 65.1001L182.088 121.9V123.5V151.1V151.9H183.688V151.1V123.5V121.9L183.588 65.1001V63.5001V19.9001C183.088 19.5001 182.488 19.0001 181.988 18.6001V63.5001V65.1001Z" fill="#4E4E4E"/>
<path d="M357.488 180.2V181.8L357.588 228.7C358.088 228 358.688 227.2 359.188 226.5L359.088 181.8V180.2V152.6V151.8H357.488V152.6V180.2Z" fill="#4E4E4E"/>
<path d="M474.288 180V181.6L474.388 232C474.888 231.9 475.488 231.7 475.988 231.6L475.888 181.6V180V152.4V151.6H474.288V152.4V180Z" fill="#4E4E4E"/>
<path d="M300.788 324.9C300.788 267.2 300.688 209.5 300.588 151.8C299.988 151.8 299.488 151.8 298.988 151.8C299.088 209.5 299.088 267.2 299.188 324.9H300.788Z" fill="#4E4E4E"/>
<path d="M415.888 181.7L415.988 238.5V240.1V297V298.6V329.7C416.588 329.6 417.088 329.5 417.588 329.3V298.6V297L417.488 240.2V238.6L417.388 181.8V180.2V152.6V151.8H415.788V152.6V180.2V181.7H415.888Z" fill="#4E4E4E"/>
<path d="M242.188 27.3999H240.488V38.9999H242.188V27.3999Z" fill="#4E4E4E"/>
</svg>
