<svg width="24" height="25" viewBox="0 0 24 25" fill="none" xmlns="http://www.w3.org/2000/svg">
<g clip-path="url(#clip0)">
<path d="M3.51562 24.541H11.3438V16.0986H8.53125V13.3154H11.3438V9.83643C11.3438 7.91808 12.9208 6.35742 14.8594 6.35742H18.375V9.14062H15.5625C14.787 9.14062 14.1562 9.76485 14.1562 10.5322V13.3154H18.2481L17.7794 16.0986H14.1562V24.541H20.4844C22.4229 24.541 24 22.9804 24 21.062V4.27002C24 2.35168 22.4229 0.791016 20.4844 0.791016H3.51562C1.57709 0.791016 0 2.35168 0 4.27002V21.062C0 22.9804 1.57709 24.541 3.51562 24.541ZM1.40625 4.27002C1.40625 3.11905 2.35254 2.18262 3.51562 2.18262H20.4844C21.6475 2.18262 22.5938 3.11905 22.5938 4.27002V21.062C22.5938 22.213 21.6475 23.1494 20.4844 23.1494H15.5625V17.4902H18.9706L19.9081 11.9238H15.5625V10.5322H19.7812V4.96582H14.8594C12.1454 4.96582 9.9375 7.15071 9.9375 9.83643V11.9238H7.125V17.4902H9.9375V23.1494H3.51562C2.35254 23.1494 1.40625 22.213 1.40625 21.062V4.27002Z" fill="white"/>
</g>
<defs>
<clipPath id="clip0">
<rect width="24" height="23.75" fill="white" transform="translate(0 0.791016)"/>
</clipPath>
</defs>
</svg>
