<svg width="449" height="111" viewBox="0 0 449 111" fill="none" xmlns="http://www.w3.org/2000/svg">
<g clip-path="url(#clip0)">
<path d="M188.33 9.8853C151.539 13.3132 115.059 19.188 80.649 29.9441C54.9136 37.9549 20.7974 49.1539 5.88231 68.2071C-29.4034 112.595 122.211 110.87 145.977 110.001C219.885 107.373 294.916 100.505 363.438 78.1049C379.63 72.8467 402.466 64.8604 408.729 51.2243C415.565 36.6928 396.928 27.0523 381.528 22.9515C353.344 15.6184 320.881 16.5603 291.606 17.4754C242.331 18.7819 193.964 24.757 145.596 30.5094C142.699 30.7565 144.177 34.0842 146.782 33.6168C209.054 26.411 272.192 18.7526 335.413 20.8912C355.714 21.6106 388.482 22.4474 401.65 36.8102C417.157 53.6026 383.063 67.4735 366.876 73.177C313.98 92.1054 253.459 100.632 195.797 104.459C163.055 106.74 130.017 108.354 97.2474 107.295C81.0073 106.764 64.7579 105.12 49.0807 102.58C34.8568 100.473 9.01243 95.5698 4.84672 82.9124C0.0880593 68.7014 24.3363 56.2496 37.0394 49.9075C52.3402 42.2074 68.8138 36.0562 85.8747 30.7907C118.843 20.9374 153.585 15.3 188.349 12.1119C190.377 11.8721 190.358 9.64551 188.33 9.8853Z" fill="#FA6E00"/>
</g>
<defs>
<clipPath id="clip0">
<rect width="449" height="111" fill="white"/>
</clipPath>
</defs>
</svg>
