<svg width="101" height="57" viewBox="0 0 101 57" fill="none" xmlns="http://www.w3.org/2000/svg">
<path d="M0.799675 56.3573C3.19968 52.6573 5.19968 48.7573 7.79967 45.2573C10.6997 41.5573 14.3997 38.4573 18.0997 35.5573C25.6997 29.5573 34.0997 24.7573 42.8997 20.8573C58.3997 14.0573 77.9997 6.05727 94.8997 12.3573C96.7997 13.1573 95.9997 16.1573 94.0997 15.4573C85.5997 12.1573 76.4997 12.8573 67.7997 15.1573C59.2997 17.3573 50.7997 20.3573 42.6997 23.8573C34.9997 27.2573 27.4997 31.2573 20.5997 36.0573C16.7997 38.6573 12.8997 41.5573 9.79967 44.9573C6.49967 48.4573 4.29967 52.8573 1.49967 56.7573C1.19967 57.2573 0.499672 56.8573 0.799675 56.3573Z" fill="#FA6E00"/>
<path d="M61.9998 0.999931C67.4998 2.19993 72.8998 4.59993 78.2998 6.29993C80.9998 6.99993 83.6998 7.99993 86.4998 8.79993C89.4998 9.59993 92.6998 9.29993 95.7998 9.29993C97.2998 9.29993 97.7998 11.2999 96.4998 12.0999C86.7998 18.1999 74.5998 19.9999 65.9998 27.6999C64.8998 28.6999 63.3998 27.4999 63.9998 26.1999C65.6998 22.2999 71.1998 20.4999 74.7998 18.8999C81.4998 15.8999 88.7998 13.4999 94.9998 9.59993C95.1998 10.4999 95.4998 11.3999 95.6998 12.3999C93.1998 12.3999 90.3998 12.6999 87.9998 12.2999C85.0998 11.7999 81.9998 10.0999 79.1998 8.99993C73.4998 6.79993 67.6998 3.59993 61.6998 1.99993C60.9998 1.79993 61.2998 0.799931 61.9998 0.999931Z" fill="#FA6E00"/>
</svg>
