<svg width="24" height="25" viewBox="0 0 24 25" fill="none" xmlns="http://www.w3.org/2000/svg">
<g clip-path="url(#clip0)">
<path d="M17.0284 0.791016H6.97162C3.12745 0.791016 0 3.88589 0 7.69002V17.642C0 21.4461 3.12745 24.541 6.97162 24.541H17.0284C20.8725 24.541 24 21.4461 24 17.6421V7.69002C24 3.88589 20.8725 0.791016 17.0284 0.791016ZM22.125 17.642C22.125 20.423 19.8387 22.6855 17.0284 22.6855H6.97162C4.16133 22.6855 1.875 20.423 1.875 17.6421V7.69002C1.875 4.909 4.16133 2.64648 6.97162 2.64648H17.0284C19.8387 2.64648 22.125 4.909 22.125 7.69002V17.642Z" fill="white"/>
<path d="M12 6.26562C8.43309 6.26562 5.53125 9.13724 5.53125 12.667C5.53125 16.1967 8.43309 19.0684 12 19.0684C15.5669 19.0684 18.4688 16.1967 18.4688 12.667C18.4688 9.13724 15.5669 6.26562 12 6.26562ZM12 17.2129C9.46702 17.2129 7.40625 15.1736 7.40625 12.667C7.40625 10.1604 9.46702 8.12109 12 8.12109C14.533 8.12109 16.5938 10.1604 16.5938 12.667C16.5938 15.1736 14.533 17.2129 12 17.2129Z" fill="white"/>
<path d="M18.5625 7.09961C19.0803 7.09961 19.5 6.68425 19.5 6.17188C19.5 5.6595 19.0803 5.24414 18.5625 5.24414C18.0447 5.24414 17.625 5.6595 17.625 6.17188C17.625 6.68425 18.0447 7.09961 18.5625 7.09961Z" fill="white"/>
</g>
<defs>
<clipPath id="clip0">
<rect width="24" height="23.75" fill="white" transform="translate(0 0.791016)"/>
</clipPath>
</defs>
</svg>
