<svg width="234" height="337" viewBox="0 0 234 337" fill="none" xmlns="http://www.w3.org/2000/svg">
<path fill-rule="evenodd" clip-rule="evenodd" d="M2.88763 129.201C4.88763 136.001 13.0876 142.301 20.0876 142.801C34.1876 143.901 47.9876 138.801 61.0876 131.701C64.4876 137.801 70.0876 142.301 76.9876 145.301C62.4876 168.601 51.9876 200.001 82.0876 211.201C106.588 220.301 160.588 197.901 160.588 197.901C162.988 213.701 202.488 222.301 216.388 207.301C216.388 207.301 214.388 225.801 221.988 232.301C231.688 240.601 244.888 240.501 258.888 236.401C257.288 243.401 255.988 250.501 255.188 257.901C253.388 275.301 247.588 309.101 262.288 325.101C277.288 329.401 293.288 332.601 309.688 334.601C309.788 334.001 309.888 333.501 310.088 332.901C317.788 330.501 325.288 326.701 332.388 321.901C331.088 326.601 330.188 331.501 329.288 336.301C362.388 338.301 396.388 335.401 427.188 326.801C433.488 311.201 439.088 295.401 443.488 279.001C446.488 267.501 449.388 252.201 450.788 236.201C451.388 236.101 452.088 236.101 452.788 236.001C465.288 234.801 477.188 232.001 488.788 228.001C490.888 256.101 474.988 289.101 460.588 314.501C488.088 301.501 510.788 282.701 524.688 257.101C526.388 254.001 528.288 251.201 530.288 248.701C532.088 235.201 532.088 221.201 529.488 208.201C533.288 205.801 536.988 203.201 540.688 200.501C584.588 194.001 629.488 158.901 661.388 134.301C678.988 120.701 715.488 89.1008 704.588 62.5008C693.388 35.3008 668.688 34.8008 644.088 39.4008C643.288 39.0008 642.488 38.5008 641.588 38.1008C636.088 35.4008 630.288 33.6008 624.388 32.4008C614.288 21.1008 597.988 13.8008 576.088 13.0008C545.988 12.0008 514.888 21.3008 486.588 34.9008C475.088 37.1008 465.188 41.6008 456.388 48.0008C455.988 47.8008 455.688 47.6008 455.388 47.4008C455.388 36.0008 446.988 25.0008 432.588 26.1008C413.088 27.7008 394.088 34.4008 375.588 43.1008C377.788 38.8008 379.788 34.5008 381.088 30.2008C386.888 10.9008 372.488 -3.99916 352.988 1.00084C333.288 6.00084 314.588 13.3008 296.488 21.9008C274.688 18.6008 208.488 32.6008 192.288 42.1008C192.988 38.4008 192.688 34.5008 191.188 30.3008C175.888 -12.4992 69.4876 28.7008 49.2876 50.9008C45.6876 54.9008 44.2876 60.1008 44.5876 65.3008C15.5876 74.7008 -8.51237 90.3008 2.88763 129.201ZM621.488 111.701C627.988 101.601 632.288 91.6008 634.588 82.0008C637.988 80.7008 641.788 79.2008 645.588 77.8008C648.588 84.9008 646.888 93.7008 642.788 102.901C636.988 107.901 630.888 112.501 624.888 117.001C620.188 120.501 615.488 123.901 610.788 127.301C614.388 122.201 618.088 117.001 621.488 111.701ZM542.588 144.801C550.588 135.601 561.688 121.701 570.188 106.501C573.088 105.301 575.988 104.001 578.988 102.801C577.888 104.401 576.988 105.701 576.488 106.401C563.488 125.001 547.788 143.501 529.888 159.101C534.588 154.001 538.888 149.101 542.588 144.801ZM364.388 219.401C368.288 215.401 372.188 211.501 376.188 208.001C376.788 207.401 377.688 206.701 378.688 205.901C373.388 213.601 368.188 221.301 363.088 229.001C354.188 242.501 344.488 256.101 333.488 268.101C342.088 250.901 352.588 234.601 364.388 219.401ZM308.788 210.901C310.488 209.801 312.088 208.801 313.688 207.701C310.388 212.301 307.288 217.101 304.388 222.001C305.688 218.401 307.188 214.701 308.788 210.901ZM122.488 151.801C135.188 151.401 128.388 153.301 138.288 152.001C126.688 157.701 107.088 167.901 105.488 179.401C106.788 170.001 113.688 160.501 122.488 151.801Z" fill="#FAF5F4"/>
<path d="M35.9877 122.1H8.3877V123.8L35.9877 123.7H36.7877V122.1H35.9877Z" fill="#4E4E4E"/>
<path d="M6.78765 122.1H1.08765C1.18765 122.6 1.38765 123.2 1.48765 123.7H6.88765V122.1H6.78765Z" fill="#4E4E4E"/>
<path d="M8.3876 122.099V86.6992C7.7876 87.3992 7.2876 88.1992 6.7876 88.8992V121.999V123.599V135.899C7.2876 136.499 7.7876 136.999 8.3876 137.499V123.599V122.099Z" fill="#4E4E4E"/>
<path d="M65.2876 180.5H63.1875C63.0875 181 63.0875 181.6 62.9875 182.1H65.2876V180.5Z" fill="#4E4E4E"/>
<path d="M66.8877 182.1H123.688V180.4L66.8877 180.5V182.1Z" fill="#4E4E4E"/>
<path d="M125.288 182.1L182.088 182V180.4H125.288V182.1Z" fill="#4E4E4E"/>
<path d="M183.788 182H188.788C189.788 181.5 190.788 180.9 191.788 180.4H183.688V182H183.788Z" fill="#4E4E4E"/>
<path d="M240.588 180.301H215.988C216.388 180.801 216.888 181.401 217.388 181.901H240.588V180.301Z" fill="#4E4E4E"/>
<path d="M125.288 180.399V163.199C124.788 163.499 124.188 163.699 123.688 163.999V180.399V181.999V212.099C124.188 211.899 124.788 211.799 125.288 211.599V181.999V180.399Z" fill="#4E4E4E"/>
<path d="M66.8876 180.499V165.699C66.2876 167.299 65.7876 168.899 65.2876 170.499V180.499V182.099V196.999C65.7876 197.999 66.2876 199.099 66.8876 200.099V182.199V180.499Z" fill="#4E4E4E"/>
<path d="M183.788 180.4V152.8V152H182.188V152.8V180.4V182V185.5C182.788 185.2 183.288 184.9 183.788 184.6V182V180.4Z" fill="#4E4E4E"/>
<path d="M183.688 121.9V123.6L240.488 123.5V121.9H183.688Z" fill="#4E4E4E"/>
<path d="M182.088 123.6V121.9L140.688 122H125.288V123.6H140.688H182.088Z" fill="#4E4E4E"/>
<path d="M37.5876 122.1H36.7876V123.7H37.5876H49.7876H65.1876V122.1H49.7876H37.5876Z" fill="#4E4E4E"/>
<path d="M66.7876 122.1V123.7L123.588 123.6V122L66.7876 122.1Z" fill="#4E4E4E"/>
<path d="M240.488 63.4004L183.588 63.5004V65.1004H240.488V63.4004Z" fill="#4E4E4E"/>
<path d="M181.988 65.1V63.5H140.588L125.188 63.6V65.2H140.588L181.988 65.1Z" fill="#4E4E4E"/>
<path d="M65.0877 65.1996V63.5996H49.6877H44.5877C44.5877 64.0996 44.4877 64.6996 44.5877 65.1996H49.6877H65.0877Z" fill="#4E4E4E"/>
<path d="M123.588 63.5996H66.7876V65.1996H123.588V63.5996Z" fill="#4E4E4E"/>
<path d="M123.588 63.5992V65.1992V121.999V123.599V138.799V151.199V151.899C124.088 151.899 124.688 151.799 125.188 151.799V151.199V138.799V123.599V121.999L125.088 65.1992V63.5992V48.1992V15.6992C124.488 15.7992 123.988 15.9992 123.488 16.0992V48.1992L123.588 63.5992Z" fill="#4E4E4E"/>
<path d="M66.7877 123.7V122.1L66.6876 65.3004V63.7004V48.3004V38.4004C66.1876 38.7004 65.5876 39.0004 65.0876 39.3004V48.2004V63.6004V65.2004L65.1876 122V123.6V137.4C65.6876 138 66.2877 138.5 66.7877 139V138.8V123.7Z" fill="#4E4E4E"/>
<path d="M181.988 65.0996L182.088 121.9V123.5V151.1V151.9H183.688V151.1V123.5V121.9L183.588 65.0996V63.4996V19.8996C183.088 19.4996 182.488 18.9996 181.988 18.5996V63.4996V65.0996Z" fill="#4E4E4E"/>
<path d="M222.188 180.301H180.788V182.001H222.188V180.301Z" fill="#4E4E4E"/>
<path d="M183.788 183.1H182.088V213.7H183.788V183.1Z" fill="#4E4E4E"/>
<path d="M125.388 159.4H123.688V171.3H125.388V159.4Z" fill="#4E4E4E"/>
</svg>
