<svg width="40" height="37" viewBox="0 0 40 37" fill="none" xmlns="http://www.w3.org/2000/svg">
<g clip-path="url(#clip0)">
<path d="M20 0.219177C27.1079 0.219177 32.8906 5.48701 32.8906 11.962V24.9147C32.8906 31.3897 27.1079 36.6575 20 36.6575C12.8921 36.6575 7.10938 31.3897 7.10938 24.9147V11.962C7.10938 5.48701 12.8921 0.219177 20 0.219177ZM18.8281 2.41388C13.7204 2.93063 9.7018 6.78313 9.46476 11.5192C11.5348 13.2893 14.0148 14.4394 16.618 14.9694C16.5316 14.6918 16.4844 14.3995 16.4844 14.0971V9.82695C16.4844 8.43524 17.4641 7.24865 18.8281 6.80797V2.41388ZM20 8.75942C19.3538 8.75942 18.8281 9.23831 18.8281 9.82695V14.0971C18.8281 14.6857 19.3538 15.1646 20 15.1646C20.6462 15.1646 21.1719 14.6857 21.1719 14.0971V9.82695C21.1719 9.23831 20.6462 8.75942 20 8.75942ZM21.1719 2.41388V6.80797C22.5359 7.24865 23.5156 8.43524 23.5156 9.82695V14.0971C23.5156 14.3995 23.4684 14.6918 23.382 14.9694C25.9852 14.4394 28.4652 13.2893 30.5352 11.5192C30.2982 6.78313 26.2796 2.93063 21.1719 2.41388ZM9.45312 24.9147C9.45312 30.2124 14.1845 34.5225 20 34.5225C25.8155 34.5225 30.5469 30.2124 30.5469 24.9147V14.2903C27.5115 16.3424 23.8493 17.4514 20 17.4514C16.1507 17.4514 12.4885 16.3424 9.45312 14.2903V24.9147Z" fill="white"/>
</g>
<defs>
<clipPath id="clip0">
<rect width="40" height="36.4384" fill="white" transform="matrix(-1 0 0 1 40 0.219177)"/>
</clipPath>
</defs>
</svg>
