<svg width="26" height="40" viewBox="0 0 26 40" fill="none" xmlns="http://www.w3.org/2000/svg">
<path d="M13 0C20.1079 0 25.8906 5.78273 25.8906 12.8906V27.1094C25.8906 34.2173 20.1079 40 13 40C5.89211 40 0.109375 34.2173 0.109375 27.1094V12.8906C0.109375 5.78273 5.89211 0 13 0ZM11.8281 2.40922C6.72039 2.97648 2.7018 7.20555 2.46476 12.4045C4.53484 14.3477 7.01484 15.6102 9.61805 16.192C9.53164 15.8873 9.48438 15.5663 9.48438 15.2344V10.5469C9.48438 9.01914 10.4641 7.71656 11.8281 7.23281V2.40922ZM13 9.375C12.3538 9.375 11.8281 9.9007 11.8281 10.5469V15.2344C11.8281 15.8805 12.3538 16.4062 13 16.4062C13.6462 16.4062 14.1719 15.8805 14.1719 15.2344V10.5469C14.1719 9.9007 13.6462 9.375 13 9.375ZM14.1719 2.40922V7.23281C15.5359 7.71656 16.5156 9.01914 16.5156 10.5469V15.2344C16.5156 15.5663 16.4684 15.8873 16.382 16.192C18.9852 15.6102 21.4652 14.3477 23.5352 12.4045C23.2982 7.20555 19.2796 2.97648 14.1719 2.40922ZM2.45312 27.1094C2.45312 32.9249 7.18445 37.6562 13 37.6562C18.8155 37.6562 23.5469 32.9249 23.5469 27.1094V15.4465C20.5115 17.6991 16.8493 18.9166 13 18.9166C9.1507 18.9166 5.48852 17.6991 2.45312 15.4465V27.1094Z" fill="#FA6E00"/>
</svg>
