<svg width="113" height="81" viewBox="0 0 113 81" fill="none" xmlns="http://www.w3.org/2000/svg">
<g clip-path="url(#clip0)">
<path d="M15.2362 1.43276C16.6168 5.62132 17.5597 9.90162 19.1845 13.9476C21.0487 18.2633 23.8391 22.202 26.6803 25.9473C32.5054 33.6822 39.4092 40.4599 46.9287 46.4688C60.1909 56.9857 77.1134 69.7054 95.0597 67.9085C97.1007 67.6178 97.0896 64.5129 95.074 64.707C86.0144 65.7378 77.3913 62.7474 69.5618 58.3114C61.9002 54.0229 54.4421 48.9606 47.4979 43.5165C40.9152 38.2708 34.6784 32.4956 29.2253 26.0992C26.2111 22.6187 23.1764 18.8225 21.0426 14.7462C18.7407 10.5222 17.7315 5.70752 16.0149 1.22385C15.8519 0.664013 15.0732 0.872925 15.2362 1.43276Z" fill="#FA6E00"/>
<path d="M60.4696 70.0866C66.0939 70.3242 71.9266 69.3758 77.5814 69.1044C80.3707 69.1137 83.2362 68.8329 86.1476 68.771C89.2524 68.7599 92.271 69.8635 95.2691 70.6516C96.7199 71.0329 97.7119 69.2257 96.6579 68.1215C88.8273 59.7561 77.4856 54.9138 71.1256 45.2806C70.3159 44.0338 68.5601 44.8131 68.81 46.2229C69.4627 50.4269 74.3244 53.5659 77.3994 56.0285C83.1167 60.6332 89.5668 64.8101 94.5717 70.1581C94.9939 69.3385 95.5128 68.5443 95.9605 67.628C93.5426 66.9925 90.9109 65.9905 88.488 65.7673C85.5562 65.5137 82.1259 66.3698 79.1382 66.7218C73.0662 67.4006 66.6433 69.021 60.4336 69.0432C59.7058 69.0587 59.7417 70.1021 60.4696 70.0866Z" fill="#FA6E00"/>
</g>
<defs>
<clipPath id="clip0">
<rect width="100.8" height="57" fill="white" transform="translate(97.7407 80.917) rotate(-165.273)"/>
</clipPath>
</defs>
</svg>
