<svg width="98" height="57" viewBox="0 0 98 57" fill="none" xmlns="http://www.w3.org/2000/svg">
<path d="M97.0001 55.9C94.6001 52.2 92.6001 48.3 90.0001 44.8C87.1001 41.1 83.4001 38 79.7001 35.1C72.1001 29.1 63.7001 24.3 54.9001 20.4C39.4001 13.6 19.8001 5.59999 2.90013 11.9C1.00013 12.7 1.80013 15.7 3.70013 15C12.2001 11.7 21.3001 12.4 30.0001 14.7C38.5001 16.9 47.0001 19.9 55.1001 23.4C62.8001 26.8 70.3001 30.8 77.2001 35.6C81.0001 38.2 84.9001 41.1 88.0001 44.5C91.3001 48 93.5001 52.4 96.3001 56.3C96.6001 56.8 97.3001 56.4 97.0001 55.9Z" fill="#FA6E00"/>
<path d="M35.8 1.00005C30.3 2.20005 24.9 4.60005 19.5 6.30005C16.8 7.00005 14.1 8.00005 11.3 8.80005C8.30001 9.60005 5.10001 9.30005 2.00001 9.30005C0.500007 9.30005 7.39098e-06 11.3001 1.30001 12.1001C11 18.2001 23.2 20.0001 31.8 27.7001C32.9 28.7001 34.4 27.5001 33.8 26.2001C32.1 22.3001 26.6 20.5001 23 18.9001C16.3 15.9001 9.00001 13.5001 2.80001 9.60005C2.60001 10.5001 2.30001 11.4001 2.10001 12.4001C4.60001 12.4001 7.40001 12.7001 9.80001 12.3001C12.7 11.8001 15.8 10.1001 18.6 9.00005C24.3 6.80005 30.1 3.60005 36.1 2.00005C36.8 1.80005 36.5 0.800053 35.8 1.00005Z" fill="#FA6E00"/>
</svg>
