<svg width="90" height="90" viewBox="0 0 90 90" fill="none" xmlns="http://www.w3.org/2000/svg">
<path d="M17.0533 74.8197C18.4199 76.05 20.342 76.9682 21.7069 77.8273C25.6775 80.2816 30.2052 82.7949 35.0906 82.3367C37.9969 82.0125 40.5268 80.5766 42.6213 78.5861C51.9832 69.3817 57.6192 57.1032 65.2427 46.5467C66.5953 44.6838 63.4942 42.9674 62.2032 44.7682C56.7312 52.2821 52.3139 60.4712 46.9041 68.0467C44.1373 71.8348 40.6981 77.4205 36.0636 78.6197C30.8725 79.8837 24.0454 75.0932 19.7025 72.3933C19.02 71.9638 18.6472 71.5945 18.7664 70.604C19.3688 67.0126 21.0853 63.5393 22.6791 60.314C25.0703 55.538 27.2755 50.7011 29.9141 45.9238C32.5526 41.1465 35.3771 36.4301 38.5117 31.8978C41.5847 27.4276 45.2159 23.2638 48.289 18.7937C50.932 15.0062 52.5226 11.0386 56.5323 8.48148C56.9024 8.23211 58.3894 8.71939 58.8227 8.77903C59.6899 9.02205 60.5572 9.2651 61.3634 9.69403C62.7894 10.3672 64.1549 11.3501 65.2735 12.4579C66.0814 13.2581 66.8283 14.2441 67.2046 15.3558C67.7051 16.5906 67.2768 17.6445 66.7875 18.8843C65.7479 21.5499 64.3359 23.97 62.924 26.39C60.0385 31.2923 56.9045 35.9484 53.9569 40.7892C53.7727 41.0994 53.5885 41.4097 53.4043 41.72C50.7047 46.6832 47.509 51.4015 44.0648 55.8736C42.3427 58.1096 40.6206 60.3457 38.8985 62.5817C37.4221 64.4453 36.0695 66.3082 34.6553 68.2334C34.2248 68.7924 33.7333 69.5373 33.0508 69.1077C31.748 68.3102 30.1971 67.3901 29.6333 65.8463C28.9452 64.1794 29.6792 62.3197 30.4148 60.8311C32.1308 57.234 35.1472 53.9396 37.2976 50.6496C41.721 43.8216 45.0891 36.1947 50.0091 29.7353C51.4238 27.9339 48.2606 26.156 46.9695 27.9567C42.9106 33.2981 40.0923 39.3755 36.5921 45.1471C33.4603 50.2981 29.5839 54.958 26.6379 60.17C25.2876 62.5278 24.1254 65.4416 25.8072 67.9695C26.7417 69.3876 28.1072 70.3704 29.5343 71.2911C31.4575 72.4567 33.3213 74.1794 35.292 72.1896C37.0785 70.51 38.678 68.522 40.2775 66.5341C46.1834 59.2035 51.9034 51.812 56.3822 43.5607C61.291 34.6267 68.245 26.4865 70.6741 16.4516C70.9775 15.1508 71.0979 14.4078 70.2267 13.2987C68.2968 10.6483 66.307 8.43128 63.3923 6.89957C61.9658 6.10263 60.4166 5.55379 58.8686 5.2524C57.816 5.0722 56.7629 4.76829 55.6499 4.89774C53.6713 5.15536 51.8249 7.26829 50.5938 8.63568C48.9932 10.3762 47.6411 12.3628 46.2885 14.2258C43.8296 17.703 41.5572 21.3648 39.0983 24.8419C32.4585 34.0323 26.6254 43.7753 21.7222 53.9466C19.5774 58.4739 17.0609 62.8794 15.8461 67.835C15.3596 69.6935 14.9985 71.9225 16.0584 73.7112C16.3075 74.0811 16.6804 74.4504 17.0533 74.8197Z" fill="#FA6E00"/>
</svg>
