<svg width="421" height="88" viewBox="0 0 421 88" fill="none" xmlns="http://www.w3.org/2000/svg">
<path fill-rule="evenodd" clip-rule="evenodd" d="M2.05624 92.0014C3.48041 96.8436 9.31951 101.33 14.3041 101.686C24.3445 102.469 34.1713 98.8374 43.4996 93.7816C45.9207 98.1254 49.9084 101.33 54.8218 103.466C44.4965 120.058 37.0196 142.417 58.4534 150.392C75.8995 156.872 114.352 140.922 114.352 140.922C116.061 152.173 144.189 158.297 154.087 147.615C154.087 147.615 152.662 160.789 158.074 165.417C164.981 171.328 174.381 171.257 184.35 168.337C183.211 173.322 182.285 178.377 181.715 183.647C180.434 196.037 176.304 220.106 186.771 231.499C197.453 234.561 208.846 236.84 220.524 238.264C220.595 237.837 220.667 237.48 220.809 237.053C226.292 235.344 231.633 232.638 236.688 229.22C235.763 232.567 235.122 236.056 234.481 239.474C258.051 240.898 282.262 238.833 304.194 232.71C308.68 221.601 312.668 210.35 315.801 198.672C317.937 190.483 320.002 179.588 320.999 168.195C321.427 168.123 321.925 168.123 322.424 168.052C331.325 167.198 339.798 165.204 348.059 162.355C349.554 182.365 338.232 205.864 327.978 223.951C347.56 214.694 363.724 201.307 373.622 183.077C374.833 180.87 376.186 178.876 377.61 177.096C378.892 167.482 378.892 157.513 377.04 148.256C379.746 146.547 382.381 144.696 385.016 142.773C416.276 138.145 448.249 113.15 470.965 95.6331C483.497 85.9487 509.488 63.4468 501.727 44.5053C493.751 25.1366 476.163 24.7806 458.645 28.0561C458.076 27.7713 457.506 27.4153 456.865 27.1304C452.949 25.2078 448.819 23.926 444.617 23.0715C437.425 15.025 425.818 9.82675 410.224 9.25708C388.79 8.545 366.644 15.1674 346.492 24.8518C338.303 26.4183 331.253 29.6227 324.987 34.1801C324.702 34.0377 324.489 33.8952 324.275 33.7528C324.275 25.6351 318.293 17.8021 308.039 18.5854C294.154 19.7247 280.624 24.4957 267.451 30.6909C269.017 27.6289 270.441 24.5669 271.367 21.505C275.497 7.76171 265.243 -2.84837 251.357 0.712058C237.329 4.27249 224.013 9.47071 211.125 15.5946C195.601 13.2448 148.461 23.214 136.925 29.9788C137.424 27.3441 137.21 24.5669 136.142 21.5762C125.247 -8.9011 49.4811 20.4368 35.097 36.2451C32.5335 39.0935 31.5366 42.7963 31.7502 46.4992C11.0997 53.1928 -6.06154 64.3013 2.05624 92.0014ZM442.552 79.5399C447.181 72.3479 450.243 65.227 451.881 58.391C454.302 57.4653 457.008 56.3972 459.714 55.4002C461.85 60.456 460.639 66.7224 457.72 73.2736C453.59 76.834 449.246 80.1096 444.973 83.314C441.627 85.8063 438.28 88.2274 434.933 90.6485C437.497 87.0168 440.131 83.314 442.552 79.5399ZM386.369 103.11C392.065 96.5588 399.97 86.6608 406.022 75.8371C408.087 74.9826 410.152 74.0569 412.289 73.2024C411.505 74.3417 410.865 75.2674 410.508 75.7659C401.251 89.0107 390.072 102.184 377.325 113.293C380.672 109.661 383.734 106.172 386.369 103.11ZM259.475 156.232C262.252 153.383 265.029 150.606 267.878 148.114C268.305 147.687 268.946 147.188 269.658 146.618C265.884 152.101 262.181 157.585 258.549 163.068C252.212 172.681 245.305 182.365 237.472 190.91C243.596 178.662 251.073 167.055 259.475 156.232ZM219.883 150.179C221.094 149.396 222.233 148.683 223.372 147.9C221.023 151.176 218.815 154.594 216.75 158.083C217.676 155.519 218.744 152.885 219.883 150.179ZM87.2217 108.095C96.2652 107.81 91.423 109.163 98.4726 108.237C90.2124 112.296 76.2555 119.559 75.1162 127.748C76.0419 121.055 80.9553 114.29 87.2217 108.095Z" fill="#FAF5F4"/>
<path d="M25.6262 86.9457H5.97266V88.1562L25.6262 88.085H26.1959V86.9457H25.6262Z" fill="#4E4E4E"/>
<path d="M4.8333 86.9457H0.774414C0.845623 87.3017 0.98804 87.729 1.05925 88.085H4.90451V86.9457H4.8333Z" fill="#4E4E4E"/>
<path d="M5.97259 86.9456V61.7378C5.54534 62.2363 5.18929 62.8059 4.83325 63.3044V86.8744V88.0138V96.7724C5.18929 97.1996 5.54534 97.5557 5.97259 97.9117V88.0138V86.9456Z" fill="#4E4E4E"/>
<path d="M337.733 86.5896L297.287 86.6608V87.8001L337.733 87.7289V86.5896Z" fill="#4E4E4E"/>
<path d="M193.251 86.7321H192.681V87.9426H193.251L201.867 87.8714H212.833V86.7321H201.867H193.251Z" fill="#4E4E4E"/>
<path d="M254.49 86.6608L214.044 86.732V87.8713H254.49V86.6608Z" fill="#4E4E4E"/>
<path d="M255.63 86.6608V87.8713L266.667 87.8001H296.076V86.6608H266.667H255.63Z" fill="#4E4E4E"/>
<path d="M359.096 87.7289V86.5896H358.526H338.873V87.7289H358.526H359.096Z" fill="#4E4E4E"/>
<path d="M255.559 4.62859H268.02C267.593 4.20134 267.237 3.8453 266.738 3.48926H255.487V4.62859H255.559Z" fill="#4E4E4E"/>
<path d="M254.419 3.48926H241.459C240.32 3.8453 239.181 4.27255 238.041 4.62859H254.49V3.48926H254.419Z" fill="#4E4E4E"/>
<path d="M193.18 46.2856H201.867H212.833V45.1462H201.867H193.18H192.61V46.2856H193.18Z" fill="#4E4E4E"/>
<path d="M359.025 46.1432V44.9326H358.455L338.801 45.0038V46.1432H358.455H359.025Z" fill="#4E4E4E"/>
<path d="M337.662 45.0038H297.216V46.2143L337.662 46.1431V45.0038Z" fill="#4E4E4E"/>
<path d="M266.596 46.2143H296.076V45.0038L266.596 45.075H255.63V46.2143H266.596Z" fill="#4E4E4E"/>
<path d="M254.419 45.0751L213.973 45.1463V46.2856L254.419 46.2144V45.0751Z" fill="#4E4E4E"/>
<path d="M254.419 4.62856V34.1089V45.075V46.2144L254.49 86.6608V87.8001V98.6238V107.454V108.023H255.63V107.525V98.6951V87.8714V86.732V46.2144V45.075V34.1089L255.559 4.62856V3.48922V0C255.202 0 254.775 0.0712086 254.419 0.0712086V3.41801V4.62856Z" fill="#4E4E4E"/>
<path d="M337.662 46.1431L337.733 86.5896V87.7289V107.382V107.952H338.873V107.382V87.7289V86.5896L338.801 46.1431V45.0038V26.7744C338.374 26.9168 338.018 27.0592 337.591 27.2017V44.9326V46.1431H337.662Z" fill="#4E4E4E"/>
<path d="M212.833 45.1462V46.2855L212.905 86.732V87.8713V98.695V107.525V108.095H214.044V107.525V98.695V87.8713V86.732L213.973 46.2855V45.1462V34.1801V14.3129C213.617 14.4553 213.19 14.6689 212.833 14.8113V34.1801V45.1462Z" fill="#4E4E4E"/>
<path d="M296.076 46.2144L296.148 86.6609V87.8002V107.454V108.023H297.287V107.454V87.8002V86.6609L297.216 46.2144V45.0751L297.144 20.1521C296.788 20.2233 296.361 20.3657 296.005 20.4369L296.076 45.0751V46.2144Z" fill="#4E4E4E"/>
<path d="M399.115 86.5184H380.458V87.6578H398.332C398.616 87.3017 398.83 86.9457 399.115 86.5184Z" fill="#4E4E4E"/>
<path d="M401.323 87.6578H420.905V86.5184H402.248C401.963 86.9457 401.679 87.3017 401.323 87.6578Z" fill="#4E4E4E"/>
<path d="M359.665 86.5896H359.096V87.729H359.665H368.353H379.319V86.5184H368.353L359.665 86.5896Z" fill="#4E4E4E"/>
<path d="M359.666 46.072H368.282H379.248V44.9326H368.282H359.666H359.025V46.1432L359.666 46.072Z" fill="#4E4E4E"/>
<path d="M420.905 44.8613L380.458 44.9325V46.0719H420.905V44.8613Z" fill="#4E4E4E"/>
<path d="M420.905 44.8614V46.0007L420.976 86.4472V87.5865V98.4102V107.24V107.81H422.115V107.24V98.4102V87.5865V86.4472L422.044 46.0007V44.8614V33.8953V10.5389C421.617 10.4677 421.261 10.3252 420.905 10.254V33.8953V44.8614Z" fill="#4E4E4E"/>
<path d="M379.248 44.9326V46.0719L379.319 86.5184V87.6577V98.4814V107.311V107.881H380.458V107.311V98.4814V87.6577V86.5184L380.387 46.0719V44.9326V33.9665V12.3903C379.96 12.4615 379.604 12.5327 379.248 12.6751V33.9665V44.9326Z" fill="#4E4E4E"/>
<path d="M130.801 86.8032V88.0138L171.248 87.9426V86.8032H130.801Z" fill="#4E4E4E"/>
<path d="M192.681 87.9426V86.7321H192.112L172.387 86.8033V87.9426H192.112H192.681Z" fill="#4E4E4E"/>
<path d="M129.662 88.0138V86.8032L100.181 86.8744H89.2153V88.0138H100.181H129.662Z" fill="#4E4E4E"/>
<path d="M26.7655 86.9457H26.1958V88.085H26.7655H35.4529H46.419V86.9457H35.4529H26.7655Z" fill="#4E4E4E"/>
<path d="M47.5583 86.9456V88.0849L88.0048 88.0137V86.8744L47.5583 86.9456Z" fill="#4E4E4E"/>
<path d="M192.61 46.2856V45.1462H192.041H172.387V46.2856H192.041H192.61Z" fill="#4E4E4E"/>
<path d="M171.248 45.1462L130.73 45.2174V46.3568H171.248V45.1462Z" fill="#4E4E4E"/>
<path d="M129.591 46.3567V45.2174H100.11L89.1443 45.2886V46.428H100.11L129.591 46.3567Z" fill="#4E4E4E"/>
<path d="M46.3479 46.4279V45.2886H35.3818H31.7502C31.7502 45.6446 31.6789 46.0719 31.7502 46.4279H35.3818H46.3479Z" fill="#4E4E4E"/>
<path d="M88.0048 45.2886H47.5583V46.4279H88.0048V45.2886Z" fill="#4E4E4E"/>
<path d="M88.0048 45.2886V46.4279V86.8744V88.0137V98.8374V107.667V108.166C88.3608 108.166 88.7881 108.095 89.1441 108.095V107.667V98.8374V88.0137V86.8744L89.0729 46.4279V45.2886V34.3225V11.1797C88.6457 11.2509 88.2896 11.3933 87.9336 11.4645V34.3225L88.0048 45.2886Z" fill="#4E4E4E"/>
<path d="M171.248 46.3568L171.319 86.8033V87.9426V107.596V108.166H172.458V107.596V87.9426V86.8033L172.387 46.2856V45.1463V23.1428C171.96 23.2852 171.604 23.4277 171.248 23.5701V45.0751V46.3568Z" fill="#4E4E4E"/>
<path d="M47.5584 88.085V86.9457L47.4872 46.4992V45.3599V34.3938V27.3441C47.1312 27.5577 46.7039 27.7714 46.3479 27.985V34.3226V45.2887V46.428L46.4191 86.8745V88.0138V97.8406C46.7752 98.2678 47.2024 98.6239 47.5584 98.9799V98.8375V88.085Z" fill="#4E4E4E"/>
<path d="M129.591 46.3567L129.662 86.8032V87.9425V107.596V108.166H130.801V107.596V87.9425V86.8032L130.73 46.3567V45.2174V14.1705C130.374 13.8856 129.947 13.5296 129.591 13.2448V45.2174V46.3567Z" fill="#4E4E4E"/>
<path d="M172.458 19.5111H171.248V27.7713H172.458V19.5111Z" fill="#4E4E4E"/>
</svg>
