<svg width="571" height="343" viewBox="0 0 571 343" fill="none" xmlns="http://www.w3.org/2000/svg">
<g clip-path="url(#clip0)">
<path d="M174.387 195.096C174.364 194.391 174.349 193.647 174.349 192.88V151.073C174.349 145.224 175.092 141.249 176.58 139.173C178.068 137.096 180.299 136.05 183.275 136.05C186.25 136.05 188.505 137.088 190.046 139.173C191.581 141.257 192.355 145.224 192.355 151.073V192.88C192.355 193.655 192.34 194.391 192.317 195.096H211.826C211.842 194.561 211.85 194.019 211.85 193.469V150.616C211.85 128.891 202.327 118.029 183.282 118.029C164.237 118.029 154.715 128.891 154.715 150.616V193.469C154.715 194.019 154.723 194.553 154.738 195.096H174.387Z" fill="white"/>
<path d="M58.1809 76.9273C58.1809 87.3402 55.6007 94.9562 50.4405 99.7676C45.2802 104.579 38.2371 106.981 29.3113 106.981H0V1.03819H28.5674C38.2914 1.03819 45.4584 3.3935 50.0686 8.10413C54.6787 12.8147 56.9877 20.1364 56.9877 30.0535V32.1376C56.9877 37.592 55.8952 42.0315 53.7102 45.456C51.5252 48.8805 48.8986 51.2823 45.8226 52.6691C49.1 53.8623 51.9746 56.264 54.454 59.8822C56.9334 63.5082 58.1731 68.49 58.1731 74.8354V76.9273H58.1809ZM37.5011 31.541C37.5011 27.179 36.703 23.956 35.1224 21.8719C33.534 19.7877 30.8531 18.7495 27.0875 18.7495H19.5021V44.1931H27.3897C31.1553 44.1931 33.7897 43.1316 35.2773 40.9933C36.7572 38.8626 37.5011 35.7093 37.5011 31.541ZM36.3853 85.8526C37.9195 83.5748 38.6943 80.1038 38.6943 75.4397C38.6943 70.7756 37.9272 67.3278 36.3853 65.0965C34.8434 62.8651 32.0464 61.7494 27.9786 61.7494H19.4943V89.2772H27.9708C32.0386 89.2772 34.8434 88.1382 36.3853 85.8526Z" fill="white"/>
<path d="M124.544 106.981H105.05V66.2121C101.578 67.8004 97.2627 68.5907 92.1024 68.5907C84.7572 68.5907 78.7136 66.1889 73.9485 61.3776C69.1834 56.5662 66.8047 49.1516 66.8047 39.1338V1.03819H86.299V37.1969C86.299 42.3569 87.1203 45.9983 88.7552 48.1367C90.3901 50.2673 93.1949 51.3365 97.1619 51.3365C99.7421 51.3365 102.369 50.7399 105.05 49.5545V1.03819H124.544V106.981Z" fill="white"/>
<path d="M196.71 106.981H177.363V58.4722C177.363 54.4046 177.712 49.5932 178.401 44.0381H178.107L155.49 106.981H138.824V1.03819H158.171V48.3536C158.171 55.2956 157.876 60.5563 157.28 64.128H157.574L180.044 1.03819H196.71V106.981Z" fill="white"/>
<path d="M282.862 106.981H264.56V55.9464L264.855 45.0841L262.771 54.1567L252.954 86.5964H241.053L231.081 54.1567L228.996 45.0841L229.291 55.9464V106.981H210.99V1.03819H229.291L246.995 58.9215L264.7 1.03819H282.854V106.981H282.862Z" fill="white"/>
<path d="M352.208 75.4397C352.208 97.1644 342.685 108.027 323.64 108.027C304.595 108.027 295.073 97.1644 295.073 75.4397V32.587C295.065 10.8623 304.588 0 323.632 0C342.677 0 352.2 10.8623 352.2 32.587V75.4397H352.208ZM332.713 74.8431V33.0286C332.713 27.1791 331.946 23.2045 330.404 21.1281C328.862 19.0439 326.608 18.0057 323.632 18.0057C320.657 18.0057 318.426 19.0439 316.938 21.1281C315.45 23.2122 314.707 27.1791 314.707 33.0286V74.8431C314.707 80.7004 315.474 84.6905 317.016 86.8211C318.55 88.9518 320.758 90.0209 323.64 90.0209C326.616 90.0209 328.87 88.9595 330.412 86.8211C331.938 84.6905 332.713 80.6927 332.713 74.8431Z" fill="white"/>
<path d="M78.6361 137.081H60.335V225.017H40.8406V137.081H22.2373V119.075H78.6361V137.081Z" fill="white"/>
<path d="M145.595 194.964C145.595 205.377 143.015 212.993 137.855 217.804C132.695 222.616 125.652 225.017 116.726 225.017H87.4146V119.075H115.982C125.706 119.075 132.873 121.43 137.483 126.141C142.093 130.852 144.402 138.173 144.402 148.09V150.174C144.402 155.629 143.31 160.068 141.125 163.493C138.94 166.917 136.313 169.319 133.237 170.706C136.515 171.899 139.389 174.301 141.869 177.919C144.348 181.545 145.588 186.527 145.588 192.872V194.964H145.595ZM124.908 149.578C124.908 145.216 124.11 141.993 122.529 139.909C120.941 137.824 118.26 136.786 114.494 136.786H106.909V162.23H114.797C118.562 162.23 121.196 161.168 122.684 159.03C124.164 156.899 124.908 153.746 124.908 149.578ZM123.792 203.889C125.326 201.612 126.101 198.141 126.101 193.476C126.101 188.812 125.334 185.365 123.792 183.133C122.25 180.902 119.453 179.786 115.385 179.786H106.901V207.314H115.385C119.453 207.314 122.258 206.175 123.792 203.889Z" fill="white"/>
<path d="M281.924 154.04C281.924 174.773 272.448 185.14 253.504 185.14H243.679V225.017H224.185V119.075H253.496C272.441 119.075 281.917 129.488 281.917 150.322V154.04H281.924ZM262.43 153.149V151.213C262.43 146.053 261.609 142.357 259.974 140.126C258.339 137.894 255.534 136.779 251.567 136.779H243.679V167.429H251.567C255.534 167.429 258.339 166.367 259.974 164.229C261.609 162.106 262.43 158.41 262.43 153.149Z" fill="white"/>
<path d="M349.596 225.017H330.249V176.509C330.249 172.441 330.598 167.63 331.288 162.075H330.993L308.376 225.017H291.71V119.075H311.057V166.39C311.057 173.332 310.763 178.593 310.166 182.165H310.461L332.93 119.075H349.596V225.017Z" fill="white"/>
<path d="M414.619 137.081H396.318V225.017H376.824V137.081H358.228V119.075H414.627V137.081H414.619Z" fill="white"/>
<path d="M481.284 225.017H461.937V176.509C461.937 172.441 462.285 167.63 462.975 162.075H462.681L440.064 225.017H423.397V119.075H442.745V166.39C442.745 173.332 442.45 178.593 441.854 182.165H442.148L464.618 119.075H481.284V225.017Z" fill="white"/>
<path d="M73.4216 341.962H55.1205V290.927L55.4149 280.065L53.3307 289.138L43.506 321.578H31.6049L21.633 289.138L19.5488 280.065L19.8432 290.927V341.962H1.5498V236.019H19.8509L37.5555 293.903L55.26 236.019H73.4139V341.962H73.4216Z" fill="white"/>
<path d="M146.479 341.962H127.132L123.56 324.855H102.283L98.8587 341.962H79.6665L104.22 236.019H121.483L146.479 341.962ZM120.29 308.778L114.781 282.444L112.697 270.838L110.76 282.444C107.289 300 105.499 308.778 105.406 308.778H120.29Z" fill="white"/>
<path d="M210.463 341.962H191.116V293.453C191.116 289.386 191.465 284.574 192.154 279.019H191.86L169.243 341.962H152.577V236.019H171.924V283.335C171.924 290.277 171.629 295.537 171.033 299.109H171.327L193.797 236.019H210.463V341.962Z" fill="white"/>
<path d="M203.172 205.78C202.777 211.932 200.693 216.689 196.919 220.067C193.146 223.437 188.334 225.126 182.484 225.126C176.433 225.126 171.598 223.514 167.98 220.291C164.362 217.068 162.301 212.234 161.805 205.788H173.861C174.155 208.073 175.054 209.979 176.542 211.513C178.029 213.055 180.013 213.822 182.492 213.822C187.653 213.822 190.527 211.141 191.124 205.788H203.172V205.78Z" fill="white"/>
<path d="M281.289 310.715C281.289 331.549 271.813 341.962 252.869 341.962H223.255V236.019H275.78V253.87H242.75V277.229H252.869C271.813 277.229 281.289 287.549 281.289 308.182V310.715ZM261.795 310.119V308.925C261.795 303.665 260.973 299.977 259.338 297.838C257.704 295.708 254.899 294.639 250.932 294.639H242.75V324.398H250.932C254.899 324.398 257.704 323.305 259.338 321.12C260.981 318.951 261.795 315.279 261.795 310.119Z" fill="white"/>
<path d="M349.442 236.019L322.509 322.91C320.626 329.163 318.093 333.726 314.924 336.6C311.057 340.172 304.704 341.954 295.879 341.954H290.525V323.948H293.949C299.21 323.948 302.527 321.469 303.921 316.51L306.153 308.925L283.389 236.019H304.371L314.04 270.535C315.133 274.402 315.923 278.671 316.419 283.335H316.868C317.062 280.259 318.302 274.556 320.588 266.228L328.917 236.019H349.442Z" fill="white"/>
<path d="M406.135 254.025H387.834V341.962H368.339V254.025H349.744V236.019H406.142V254.025H406.135Z" fill="white"/>
<path d="M470.266 341.962H450.772V297.622H432.912V341.962H413.418V236.019H432.912V279.314H450.772V236.019H470.266V341.962Z" fill="white"/>
<path d="M538.117 309.816C537.722 331.936 528.3 343 509.844 343C490.799 343 481.276 332.138 481.276 310.413V267.56C481.276 245.836 490.799 234.973 509.844 234.973C528.393 234.973 537.815 245.936 538.117 267.855H518.622C518.522 262.3 517.855 258.356 516.616 256.024C515.376 253.692 513.121 252.53 509.844 252.53C506.768 252.53 504.436 253.622 502.847 255.807C501.259 257.992 500.468 262.059 500.468 268.01V279.763H520.707V297.319H500.468V309.669C500.468 315.62 501.259 319.741 502.847 322.019C504.436 324.305 506.714 325.444 509.689 325.444C512.765 325.444 515.02 324.305 516.461 322.019C517.894 319.741 518.669 315.674 518.77 309.816H538.117Z" fill="white"/>
<path d="M571 331.099C571 334.47 569.861 337.298 567.575 339.583C565.289 341.869 562.516 343.008 559.246 343.008C556.069 343.008 553.342 341.869 551.064 339.583C548.778 337.305 547.639 334.578 547.639 331.402C547.639 328.225 548.778 325.475 551.064 323.143C553.342 320.81 556.069 319.648 559.246 319.648C562.423 319.648 565.173 320.787 567.505 323.073C569.83 325.343 571 328.024 571 331.099ZM570.698 236.019L566.39 309.375H552.249L547.934 236.019H570.698Z" fill="white"/>
</g>
<defs>
<clipPath id="clip0">
<rect width="571" height="343" fill="white"/>
</clipPath>
</defs>
</svg>
