<svg width="289" height="123" viewBox="0 0 289 123" fill="none" xmlns="http://www.w3.org/2000/svg">
<g clip-path="url(#clip0)">
<path d="M127.487 29.0433C104.571 26.6351 81.5476 25.7566 59.1953 28.1071C42.482 29.8444 20.2553 32.5008 8.81309 42.2928C-18.1727 65.0389 74.75 82.523 89.3889 84.899C134.904 92.3326 181.623 97.3186 226.254 92.0398C236.795 90.8138 251.733 88.7369 257.224 81.1897C263.175 73.1665 252.953 65.011 244.036 60.6282C227.695 52.712 207.728 49.3175 189.716 46.2964C159.424 41.0687 129.12 38.7983 98.8418 36.3918C97.0401 36.1883 97.5382 38.3976 99.1883 38.4312C138.146 41.6514 177.688 44.7016 216.087 53.7344C228.414 56.6548 248.349 61.1711 254.651 71.5369C262.088 83.6699 239.55 87.9579 228.956 89.4559C194.304 94.5285 156.256 92.3278 120.529 87.6112C100.229 84.9985 79.8302 81.944 59.9204 77.2918C50.0542 74.9826 40.318 71.9937 31.0408 68.5287C22.5996 65.5054 7.39313 59.3566 6.38804 51.131C5.20967 41.8857 21.5548 37.2592 30.0955 34.9459C40.3902 32.1223 51.2133 30.3863 62.2877 29.2621C83.6482 27.2857 105.581 28.0965 127.227 30.4029C128.496 30.5046 128.756 29.1449 127.487 29.0433Z" fill="#FA6E00"/>
</g>
<defs>
<clipPath id="clip0">
<rect width="280" height="69" fill="white" transform="translate(13.5254) rotate(11.3043)"/>
</clipPath>
</defs>
</svg>
