<svg width="101" height="57" viewBox="0 0 101 57" fill="none" xmlns="http://www.w3.org/2000/svg">
<path d="M0.799675 55.9002C3.19968 52.2002 5.19968 48.3002 7.79967 44.8002C10.6997 41.1002 14.3997 38.0002 18.0997 35.1002C25.6997 29.1002 34.0997 24.3002 42.8997 20.4002C58.3997 13.6002 77.9997 5.60024 94.8997 11.9002C96.7997 12.7002 95.9997 15.7002 94.0997 15.0002C85.5997 11.7002 76.4997 12.4002 67.7997 14.7002C59.2997 16.9002 50.7997 19.9002 42.6997 23.4002C34.9997 26.8002 27.4997 30.8002 20.5997 35.6002C16.7997 38.2002 12.8997 41.1002 9.79967 44.5002C6.49967 48.0002 4.29967 52.4002 1.49967 56.3002C1.19967 56.8002 0.499672 56.4002 0.799675 55.9002Z" fill="#413E6F"/>
<path d="M61.9998 0.999931C67.4998 2.19993 72.8998 4.59993 78.2998 6.29993C80.9998 6.99993 83.6998 7.99993 86.4998 8.79993C89.4998 9.59993 92.6998 9.29993 95.7998 9.29993C97.2998 9.29993 97.7998 11.2999 96.4998 12.0999C86.7998 18.1999 74.5998 19.9999 65.9998 27.6999C64.8998 28.6999 63.3998 27.4999 63.9998 26.1999C65.6998 22.2999 71.1998 20.4999 74.7998 18.8999C81.4998 15.8999 88.7998 13.4999 94.9998 9.59993C95.1998 10.4999 95.4998 11.3999 95.6998 12.3999C93.1998 12.3999 90.3998 12.6999 87.9998 12.2999C85.0998 11.7999 81.9998 10.0999 79.1998 8.99993C73.4998 6.79993 67.6998 3.59993 61.6998 1.99993C60.9998 1.79993 61.2998 0.799931 61.9998 0.999931Z" fill="#413E6F"/>
</svg>
