<svg width="101" height="57" viewBox="0 0 101 57" fill="none" xmlns="http://www.w3.org/2000/svg">
<g clip-path="url(#clip0)">
<path d="M100 55.9002C97.6001 52.2002 95.6001 48.3002 93.0001 44.8002C90.1001 41.1002 86.4001 38.0002 82.7001 35.1002C75.1001 29.1002 66.7001 24.3002 57.9001 20.4002C42.4001 13.6002 22.8001 5.60024 5.90013 11.9002C4.00013 12.7002 4.80013 15.7002 6.70013 15.0002C15.2001 11.7002 24.3001 12.4002 33.0001 14.7002C41.5001 16.9002 50.0001 19.9002 58.1001 23.4002C65.8001 26.8002 73.3001 30.8002 80.2001 35.6002C84.0001 38.2002 87.9001 41.1002 91.0001 44.5002C94.3001 48.0002 96.5001 52.4002 99.3001 56.3002C99.6001 56.8002 100.3 56.4002 100 55.9002Z" fill="#FA6E00"/>
<path d="M38.8 0.999931C33.3 2.19993 27.9 4.59993 22.5 6.29993C19.8 6.99993 17.1 7.99993 14.3 8.79993C11.3 9.59993 8.10001 9.29993 5.00001 9.29993C3.50001 9.29993 3.00001 11.2999 4.30001 12.0999C14 18.1999 26.2 19.9999 34.8 27.6999C35.9 28.6999 37.4 27.4999 36.8 26.1999C35.1 22.2999 29.6 20.4999 26 18.8999C19.3 15.8999 12 13.4999 5.80001 9.59993C5.60001 10.4999 5.30001 11.3999 5.10001 12.3999C7.60001 12.3999 10.4 12.6999 12.8 12.2999C15.7 11.7999 18.8 10.0999 21.6 8.99993C27.3 6.79993 33.1 3.59993 39.1 1.99993C39.8 1.79993 39.5 0.799931 38.8 0.999931Z" fill="#FA6E00"/>
</g>
<defs>
<clipPath id="clip0">
<rect width="100.8" height="57" fill="white"/>
</clipPath>
</defs>
</svg>
