<svg width="637" height="111" viewBox="0 0 637 111" fill="none" xmlns="http://www.w3.org/2000/svg">
<g clip-path="url(#clip0)">
<path d="M267.913 16.2044C216.045 17.2774 164.576 20.38 115.948 27.6006C79.5791 32.9732 31.3578 40.5725 10.0573 55.5526C-40.3239 90.4254 173.232 96.2157 206.717 96.6308C310.847 97.9819 416.626 95.8947 513.477 80.7079C536.361 77.1481 568.647 71.6578 577.679 60.727C587.53 49.0861 561.432 40.2613 539.806 36.152C500.225 28.7731 454.49 28.0049 413.247 27.3662C343.829 26.0985 275.618 28.7185 207.409 31.1549C203.325 31.2206 205.355 34.0311 209.031 33.7702C296.845 30.7982 385.885 27.4946 474.891 32.2623C503.47 33.8202 549.607 36.0677 567.93 48.521C589.511 63.0863 541.28 72.8868 518.394 76.8135C443.605 89.8845 358.236 94.0278 276.967 94.4366C230.819 94.7572 184.266 94.5158 138.129 92.0848C115.266 90.8752 92.4057 88.7484 70.3657 85.9114C50.3657 83.5002 14.0429 78.2333 8.37162 67.6125C1.88922 55.684 36.2323 46.5838 54.2208 41.9655C75.8891 36.3526 99.1851 32.0708 123.295 28.5463C169.878 22.0005 218.896 19.0107 267.905 18.0388C270.764 17.9377 270.772 16.1034 267.913 16.2044Z" fill="#FA6E00"/>
</g>
<defs>
<clipPath id="clip0">
<rect width="633.898" height="90.527" fill="white" transform="translate(2.92578) rotate(1.85224)"/>
</clipPath>
</defs>
</svg>
