<svg width="474" height="431" viewBox="0 0 474 431" fill="none" xmlns="http://www.w3.org/2000/svg">
<g clip-path="url(#clip0)">
<path d="M176.941 89.3832C146.484 108.041 117.791 133.812 93.9 173.436C76.0114 202.972 52.6499 243.828 51.053 303.269C46.8563 441.873 179.917 401.41 200.411 393.31C264.187 368.337 326.376 330.649 373.354 248.861C384.475 229.638 399.815 200.85 397.056 159.339C394.258 115.065 371.905 91.1017 355.787 82.653C326.394 67.6958 298.252 78.0415 272.914 87.5637C230.122 102.905 190.976 131.746 151.693 159.933C149.281 161.335 152.613 170.763 154.633 168.783C205.331 133.081 256.519 95.8474 313.742 87.3683C332.137 84.7416 361.631 79.5491 382.02 118.658C405.958 164.357 384.243 213.055 373.395 233.586C338.126 301.527 289.782 340.701 241.106 365.402C213.532 379.744 185.292 392.2 155.66 396.739C140.972 398.971 125.597 397.935 110.184 394.136C96.3203 391.27 70.4753 382.902 59.087 346.7C46.2285 306.074 60.0989 263.842 67.4754 242.249C76.3233 216.062 87.1512 194.15 99.0377 174.702C122.203 138.066 149.503 113.398 178.313 95.9183C179.961 94.7407 178.589 88.2056 176.941 89.3832Z" fill="#413E6F"/>
<g clip-path="url(#clip1)">
<path d="M176.941 89.3832C146.484 108.041 117.791 133.812 93.9 173.436C76.0114 202.972 52.6499 243.828 51.053 303.269C46.8563 441.873 179.917 401.41 200.411 393.31C264.187 368.337 326.376 330.649 373.354 248.861C384.475 229.638 399.815 200.85 397.056 159.339C394.258 115.065 371.905 91.1017 355.787 82.653C326.394 67.6958 298.252 78.0415 272.914 87.5637C230.122 102.905 190.976 131.746 151.693 159.933C149.281 161.335 152.613 170.763 154.633 168.783C205.331 133.081 256.519 95.8474 313.742 87.3683C332.137 84.7416 361.631 79.5491 382.02 118.658C405.958 164.357 384.243 213.055 373.395 233.586C338.126 301.527 289.782 340.701 241.106 365.402C213.532 379.744 185.292 392.2 155.66 396.739C140.972 398.971 125.597 397.935 110.184 394.136C96.3203 391.27 70.4753 382.902 59.087 346.7C46.2285 306.074 60.0989 263.842 67.4754 242.249C76.3233 216.062 87.1512 194.15 99.0377 174.702C122.203 138.066 149.503 113.398 178.313 95.9183C179.961 94.7407 178.589 88.2056 176.941 89.3832Z" fill="#413E6F"/>
</g>
</g>
<defs>
<clipPath id="clip0">
<rect width="409.501" height="353.589" fill="white" transform="translate(0 84.0078) rotate(-11.8381)"/>
</clipPath>
<clipPath id="clip1">
<rect width="409.501" height="353.589" fill="white" transform="translate(0 84.0078) rotate(-11.8381)"/>
</clipPath>
</defs>
</svg>
